<svg xmlns="http://www.w3.org/2000/svg" viewBox="0 0 320 240"><rect width="320" height="240" rx="18" fill="#f3ecdf"/><circle cx="160" cy="123" r="96" fill="#ebe2f0"/><ellipse cx="161" cy="211" rx="97" ry="8" fill="#dcd1df"/><g stroke="#5b3a8c" stroke-width="2.4" stroke-linecap="round" stroke-linejoin="round" fill="none"><circle cx="163" cy="105" r="57" fill="#f2e7be" stroke="none"/><path d="M149 112q-14-17 9-41 24 24 10 41Z" fill="#e3c767"/><rect x="137" y="117" width="44" height="73" rx="5" fill="#fffdf8"/><path d="M159 117v-12m-36 91h72M209 192q-5-49 29-88" stroke="#8a8c72"/><ellipse cx="224" cy="142" rx="7" ry="18" transform="rotate(43 224 142)" fill="#a8ad8f"/><ellipse cx="213" cy="171" rx="7" ry="18" transform="rotate(-38 213 171)" fill="#a8ad8f"/><path d="M55 71v12m-6-6h12m213 103v10m-5-5h10" stroke="#c9a227"/></g></svg>